<?xml version="1.0" standalone="no"?>
<!DOCTYPE svg PUBLIC "-//W3C//DTD SVG 20010904//EN"
 "http://www.w3.org/TR/2001/REC-SVG-20010904/DTD/svg10.dtd">
<svg version="1.0" xmlns="http://www.w3.org/2000/svg"
 width="420.000000pt" height="420.000000pt" viewBox="0 0 420.000000 420.000000"
 preserveAspectRatio="xMidYMid meet">

<g transform="translate(0.000000,420.000000) scale(0.100000,-0.100000)"
fill="#000000" stroke="none">
<path d="M2160 3520 c-30 -4 -73 -13 -95 -20 -49 -16 -165 -73 -216 -107 -20
-13 -63 -31 -95 -40 -76 -19 -155 -60 -228 -117 -35 -27 -70 -46 -85 -46 -30
0 -90 -16 -111 -30 -9 -5 -15 -27 -16 -54 -1 -31 -17 -79 -52 -153 -121 -259
-132 -317 -132 -702 0 -251 2 -300 15 -319 12 -16 15 -42 13 -104 l-3 -83 -24
49 c-25 51 -77 116 -92 116 -20 0 -9 -51 14 -61 44 -20 66 -70 95 -212 l27
-137 38 0 c22 0 37 5 38 13 0 6 0 39 0 72 -1 33 3 67 9 75 5 8 10 10 10 4 0
-23 94 -116 144 -142 47 -25 60 -27 171 -27 143 0 183 15 262 98 61 64 75 90
105 198 19 69 22 92 14 132 -11 54 -7 59 54 77 53 15 135 12 181 -7 l41 -16
-6 -53 c-4 -33 0 -78 9 -121 31 -137 93 -226 195 -279 52 -27 62 -29 180 -29
111 0 130 3 167 23 40 22 110 91 145 142 l17 25 -6 -34 c-4 -21 -2 -32 3 -28
10 6 10 -21 -1 -85 l-6 -38 45 0 c43 0 46 2 46 26 0 36 48 231 67 271 8 18 24
35 34 38 29 9 55 53 41 67 -16 16 -56 -22 -96 -92 l-31 -55 -3 70 c-2 45 3 89
13 122 15 46 16 93 12 335 -4 309 -11 356 -68 470 -28 55 -41 102 -53 192 -5
38 -5 38 44 59 33 14 50 27 50 39 0 29 -128 156 -200 199 -88 52 -303 119
-383 119 -13 0 -39 3 -56 6 -34 7 -35 14 -3 82 21 46 6 59 -83 71 -77 12 -76
12 -155 1z m-215 -775 c117 -6 155 -12 230 -37 98 -32 255 -108 288 -138 16
-15 24 -17 34 -8 8 6 12 19 11 28 -2 9 2 23 9 31 6 8 14 27 17 43 3 16 7 30 9
33 5 4 119 -71 151 -99 19 -17 20 -17 36 0 10 9 16 20 14 24 -3 4 0 9 5 13 6
3 8 12 5 19 -10 27 13 25 42 -3 81 -77 103 -109 119 -172 25 -94 54 -299 48
-334 -3 -23 -2 -27 6 -15 8 11 11 11 11 2 0 -7 -10 -17 -22 -22 -19 -7 -19 -9
-5 -9 10 -1 16 -5 13 -9 -6 -10 -66 -1 -146 22 -202 58 -427 30 -525 -64 -31
-30 -62 -33 -106 -10 -27 15 -140 12 -198 -6 -50 -15 -54 -14 -75 4 -11 10
-31 28 -44 39 -73 64 -321 87 -472 43 -110 -33 -156 -36 -162 -13 -3 10 -9 27
-13 38 -6 17 -5 17 5 5 9 -12 10 -8 5 19 -5 22 -4 31 3 27 6 -3 14 -1 18 5 4
8 3 9 -4 5 -16 -10 -15 10 7 139 26 145 54 232 93 286 39 55 51 64 115 95 70
34 116 40 236 32 56 -3 165 -9 242 -13z m-262 -622 c-7 -2 -19 -2 -25 0 -7 3
-2 5 12 5 14 0 19 -2 13 -5z m860 0 c-7 -2 -19 -2 -25 0 -7 3 -2 5 12 5 14 0
19 -2 13 -5z m-797 -49 c22 -9 43 -16 47 -15 15 3 72 -37 93 -66 15 -21 21
-45 22 -93 1 -43 -1 -58 -7 -45 -4 11 -6 26 -3 34 3 9 1 12 -5 8 -10 -7 -38
48 -34 66 1 5 -3 6 -8 3 -5 -3 -11 1 -15 9 -3 8 -12 15 -20 15 -8 0 -16 4 -18
10 -7 21 -75 38 -148 36 -91 -1 -188 -41 -222 -90 -12 -17 -32 -40 -44 -52
-13 -12 -20 -24 -17 -28 4 -4 0 -4 -8 -1 -9 3 -26 -5 -41 -20 -35 -34 -42 -20
-28 57 28 156 103 202 316 193 67 -2 115 -10 140 -21z m1009 11 c57 -12 96
-37 121 -80 25 -44 53 -159 41 -171 -4 -4 -22 5 -41 19 -28 22 -35 24 -40 12
-3 -8 -1 -15 3 -15 11 0 39 -73 45 -119 9 -67 -64 -152 -161 -187 -52 -18
-158 -17 -223 2 -74 22 -148 97 -179 181 -23 61 -23 63 -6 114 32 96 121 160
233 167 52 4 71 0 117 -22 58 -29 109 -87 121 -139 5 -25 8 -28 16 -14 5 10 6
22 3 27 -3 6 1 10 10 10 13 0 12 6 -7 32 -36 50 -54 65 -115 100 -53 30 -65
33 -138 31 -99 -1 -115 -4 -115 -16 0 -6 -3 -8 -6 -4 -3 3 -18 -5 -32 -19 -16
-14 -34 -22 -44 -18 -10 3 -18 0 -18 -6 0 -6 6 -8 13 -5 6 4 4 0 -6 -8 -10 -9
-18 -17 -17 -19 4 -11 -14 -38 -26 -38 -32 0 -6 87 34 117 40 30 121 65 167
74 42 8 198 4 250 -6z m-999 -101 c27 -14 60 -38 73 -52 28 -32 71 -119 71
-146 0 -34 -60 -144 -95 -175 -72 -62 -110 -76 -220 -76 -117 0 -162 15 -157
55 4 38 -5 55 -23 40 -7 -6 -11 -18 -8 -27 13 -35 -37 12 -62 58 -23 43 -37
93 -17 62 5 -7 15 16 26 57 10 39 22 68 27 64 5 -3 9 1 10 8 0 7 5 2 10 -11 9
-23 11 -21 38 35 30 64 82 112 135 125 69 16 141 10 192 -17z m-501 -293 c3
-5 1 -12 -5 -16 -5 -3 -10 1 -10 9 0 18 6 21 15 7z m146 -128 c13 -16 12 -17
-3 -4 -10 7 -18 15 -18 17 0 8 8 3 21 -13z"/>
<path d="M1528 2219 c-53 -6 -112 -33 -137 -63 -20 -24 4 -27 50 -6 56 25 167
26 305 2 107 -19 124 -19 124 4 0 40 -208 78 -342 63z"/>
<path d="M2427 2204 c-71 -17 -97 -30 -97 -49 0 -19 38 -19 155 0 127 21 220
19 274 -5 76 -35 68 8 -9 48 -38 19 -59 22 -155 21 -60 0 -136 -7 -168 -15z"/>
<path d="M2448 1965 c-112 -76 -50 -276 86 -275 84 1 147 60 153 144 5 60 -18
105 -69 136 -48 29 -123 27 -170 -5z m50 -37 c19 -19 14 -46 -9 -53 -31 -10
-55 16 -40 44 13 24 31 27 49 9z m132 -188 c-10 -19 -50 -29 -50 -12 0 14 24
32 42 32 16 0 17 -3 8 -20z"/>
<path d="M1570 1964 c-64 -55 -78 -127 -35 -199 83 -142 288 -68 272 98 -4 43
-10 56 -45 89 -38 35 -46 38 -101 38 -50 0 -65 -4 -91 -26z m64 -46 c15 -24
-13 -53 -43 -43 -23 7 -28 34 -9 53 16 16 38 12 52 -10z m126 -167 c0 -6 -10
-17 -22 -26 -26 -17 -37 -3 -18 20 14 17 40 20 40 6z"/>
<path d="M935 63 c3 -16 14 -36 22 -45 15 -17 82 -18 1138 -18 1056 0 1123 1
1138 18 8 9 19 30 23 46 l7 29 -20 -20 c-11 -11 -23 -27 -26 -34 -4 -10 -6
-11 -6 -1 -1 10 -6 10 -22 2 -14 -8 -321 -9 -1102 -5 -901 6 -1087 10 -1109
21 -16 8 -28 19 -28 24 0 6 -5 10 -11 10 -7 0 -9 -10 -4 -27z"/>
</g>
</svg>
